<svg xmlns="http://www.w3.org/2000/svg" width="310.938" height="28.562" viewBox="0 0 310.938 28.562">
  <defs>
    <style>
      .cls-1 {
        fill-rule: evenodd;
      }
    </style>
  </defs>
  <path id="logo.svg" class="cls-1" d="M520.168,774.745v-5.714h5.714V746.174H514.453v22.857h-5.714V746.174H497.311v22.857h5.714v5.714h17.143Zm21.851,0v-5.714h5.714v5.714h11.429v-5.714h-5.714V757.6h5.714v-5.715h-5.714v-5.714H530.59v28.571h11.429Zm0-22.857h5.714V757.6h-5.714v-5.715Zm44.708-5.714H569.584v5.714H563.87v22.857H575.3V763.317h5.714v11.428h11.429V751.888h-5.715v-5.714ZM575.3,751.888h5.714V757.6H575.3v-5.715Zm44.708,22.857v-5.714h5.714v-5.714h-5.714V757.6h5.714v-5.715h-5.714v-5.714H597.15v28.571h22.857Zm-11.429-22.857h5.715V757.6h-5.715v-5.715Zm0,11.429h5.715v5.714h-5.715v-5.714Zm44.709,11.428v-5.714H659V751.888h-5.714v-5.714H636.144v5.714H630.43v17.143h5.714v5.714h17.143Zm-11.429-22.857h5.715v17.143h-5.715V751.888Zm33.28,22.857v-5.714h5.714v5.714h11.429v-5.714h-5.714V757.6h5.714v-5.715h-5.714v-5.714H663.709v28.571h11.429Zm0-22.857h5.714V757.6h-5.714v-5.715Zm44.708,22.857v-5.714h5.715V751.888h-5.715v-5.714H702.7v5.714h-5.714v17.143H702.7v5.714h17.143Zm-11.428-22.857h5.714v17.143h-5.714V751.888Zm44.708,22.857v-5.714h5.714v-5.714h-5.714V757.6H741.7v-5.715H758.84v-5.714H735.983v5.714h-5.714V757.6h5.714v5.714h11.429v5.714H730.269v5.714h22.857Zm21.851,0V763.317h5.715v11.428H792.12V746.174H780.692V757.6h-5.715V746.174H763.549v28.571h11.428Zm33.28,0V746.174H796.828v28.571h11.429Z" transform="translate(-497.312 -746.188)"/>
</svg>
