<svg xmlns="http://www.w3.org/2000/svg" width="146" height="33" viewBox="0 0 146 33">
  <defs>
    <style>
      .cls-1 {
        fill-rule: evenodd;
      }
    </style>
  </defs>
  <path id="logo_ureyu.svg" class="cls-1" d="M559.535,740h-11.69v20.972h7.735V743.829h3.955V740Zm0,7.675h5.8v-3.831h-5.8v3.831ZM631.265,740V757.09H621.66V740h-3.954v17.244h3.954V761l17.34-.025V740h-7.735Zm-25.51,15.821h-5.48v-4.039h-3.953v4.039h3.909v4.04h5.524v10.472h-4.893v-2.421h-4.935V771.2h1.482v1.683h16.083V740.046h-7.737V755.82Zm-9.433-15.773h-3.954v11.615h3.954V740.047Zm-21.941,5.735H582.1v3.823h-7.717v-3.823H570.37v3.823h-3.341v0.033h-0.561v11.45h0.561v0.02h20.924v-3.854H570.37v-3.8h17.583V740H574.381v5.783ZM535.1,757.09h-9.6V740H495.672l0.014,0.732-1.775.014v2H493v29.51h0.912V773H511.7v-0.952h0.858v-1.059L514.369,771l0.052-26.661h7.116v12.907h3.956V761l17.338-.025V740H535.1V757.09ZM500.134,762.5h-1.706v1.683h-1.857V762.5h-1.705v-1.834h1.705v-1.686h1.857v1.686h1.706V762.5ZM502.852,766H501.96v0.88h-0.866v0.856h-0.907V766.8h0.867v-0.856h0.891v-0.881h0.907V766Zm3.522,0h-0.891v0.88h-0.868v0.856H503.71V766.8h0.866v-0.856h0.893v-0.881h0.905V766Zm2.7-2.633h-2.7v-2.707h2.7v2.707Zm0.909-9.789H497.392V742.308H509.98v11.273Zm2.733,8.025h-2.7V758.9h2.7v2.707Z" transform="translate(-493 -740)"/>
</svg>
