<svg xmlns="http://www.w3.org/2000/svg" width="519.875" height="108.001" viewBox="0 0 519.875 108.001">
  <defs>
    <style>
      .cls-1 {
        fill-rule: evenodd;
      }
    </style>
  </defs>
  <path id="logo.svg" class="cls-1" d="M531.839,994.374a35.009,35.009,0,0,0-3.609-14.581,28.172,28.172,0,0,0-8.447-9.889,35.982,35.982,0,0,0-12.272-5.631,60.363,60.363,0,0,0-15.087-1.8,51.563,51.563,0,0,0-12.272,1.516,35.845,35.845,0,0,0-11.189,4.764,25.391,25.391,0,0,0-8.086,8.517,24.449,24.449,0,0,0-3.1,12.632q0,7.364,3.032,12.052a24.1,24.1,0,0,0,7.941,7.65,44.142,44.142,0,0,0,11.261,4.7q6.353,1.725,12.85,3.03,6.639,1.29,12.922,2.81a51.256,51.256,0,0,1,11.261,4.05,22.133,22.133,0,0,1,8.013,6.64q3.033,4.11,3.032,10.61a20.01,20.01,0,0,1-2.96,11.26,24,24,0,0,1-7.363,7.22,30.7,30.7,0,0,1-9.673,3.89,46.357,46.357,0,0,1-9.89,1.16,62.224,62.224,0,0,1-14.582-1.66,33.2,33.2,0,0,1-12.056-5.42,25.9,25.9,0,0,1-8.013-9.6q-2.889-5.835-2.454-14.36h-6.353q-0.145,9.96,3.249,16.89a30.6,30.6,0,0,0,9.312,11.33,38.121,38.121,0,0,0,13.86,6.36,71.8,71.8,0,0,0,17.037,1.94,53.756,53.756,0,0,0,12.344-1.51,36.263,36.263,0,0,0,11.7-4.98,29.25,29.25,0,0,0,8.735-8.95q3.465-5.49,3.465-13.57,0-7.515-3.032-12.49a24.4,24.4,0,0,0-8.013-8.09,44.515,44.515,0,0,0-11.262-4.9q-6.279-1.815-12.921-3.11-6.5-1.29-12.85-2.74a52.033,52.033,0,0,1-11.261-3.83,21.943,21.943,0,0,1-7.941-6.28,15.968,15.968,0,0,1-3.032-10.1,19.219,19.219,0,0,1,2.743-10.611,20.967,20.967,0,0,1,7-6.785,29.526,29.526,0,0,1,9.241-3.537,47.1,47.1,0,0,1,9.312-1.01,48.889,48.889,0,0,1,13.066,1.66,29.916,29.916,0,0,1,10.323,4.981,24.209,24.209,0,0,1,6.858,8.228,27.654,27.654,0,0,1,2.815,11.55h6.353Zm77.1,62.8a23.411,23.411,0,0,0,.361,4.26,8.476,8.476,0,0,0,1.372,3.39,6.815,6.815,0,0,0,2.959,2.31,13.154,13.154,0,0,0,5.27.87,17.093,17.093,0,0,0,4.476-.58v-4.62a26.379,26.379,0,0,1-4.043.44,4.573,4.573,0,0,1-2.887-.8,4.352,4.352,0,0,1-1.444-2.09,10.62,10.62,0,0,1-.5-2.89c-0.05-1.06-.073-2.11-0.073-3.17v-43.17a17.307,17.307,0,0,0-6.136-13.787q-6.138-5.268-19.563-5.269T568,998.2q-7.291,6.136-7.869,18.411h5.487q0.575-9.96,6.713-14.87t16.1-4.912a33.967,33.967,0,0,1,9.528,1.155,17.887,17.887,0,0,1,6.353,3.177,12.673,12.673,0,0,1,3.609,4.62,13.7,13.7,0,0,1,1.156,5.63,40.61,40.61,0,0,1-.434,6.5,7.358,7.358,0,0,1-2.165,4.25,11.811,11.811,0,0,1-5.126,2.6,49.221,49.221,0,0,1-9.312,1.37l-8.518.73a84.862,84.862,0,0,0-9.313,1.44,28.015,28.015,0,0,0-8.807,3.39,19.755,19.755,0,0,0-6.569,6.5q-2.6,4.11-2.6,10.61,0,10.68,6.5,15.81t18.336,5.12a34.992,34.992,0,0,0,9.818-1.3,29.555,29.555,0,0,0,8.013-3.61,26.255,26.255,0,0,0,5.992-5.27,22.771,22.771,0,0,0,3.753-6.28h0.289v3.9Zm0-17.47a36.351,36.351,0,0,1-.794,5.56,23.9,23.9,0,0,1-3.682,8.52,26.276,26.276,0,0,1-8.373,7.8q-5.49,3.39-14.871,3.39-9.1,0-14.294-3.97t-5.2-12.2a15.788,15.788,0,0,1,2.021-8.45,14.939,14.939,0,0,1,5.27-5.12,23.55,23.55,0,0,1,7.291-2.67q4.039-.8,8.085-1.23l9.24-.87a76.247,76.247,0,0,0,9.168-1.29,10.463,10.463,0,0,0,6.136-3.32v13.85Zm44.18-28.7v57h-5.487v-57H642V980h16v31h-4.885Zm-5.487-46.077h5.487v14.87h-5.487v-14.87Zm48.511,33.637V1015H702v34h-5.861v1.39a19.991,19.991,0,0,0,1.011,7.07,8.061,8.061,0,0,0,3.1,3.97,10.924,10.924,0,0,0,5.053,1.66,51.476,51.476,0,0,0,6.858.15V1068a51.506,51.506,0,0,1-8.157-.07,16.3,16.3,0,0,1-7-2.17,12.636,12.636,0,0,1-4.836-5.41q-1.807-3.615-1.516-9.96V1049H685v-34h5.653V998.56H676.937V993.8h13.716V970.7h5.486v23.1h16.17v4.764h-16.17Zm33.71,47.35a36.621,36.621,0,0,0,6.57,12.35,31.6,31.6,0,0,0,10.683,8.37,35.848,35.848,0,0,0,29.165,0,31.635,31.635,0,0,0,10.684-8.37,36.689,36.689,0,0,0,6.569-12.35,49.482,49.482,0,0,0,2.238-15.01,48.84,48.84,0,0,0-2.238-14.94,37.565,37.565,0,0,0-6.569-12.35,31.222,31.222,0,0,0-10.684-8.442,35.806,35.806,0,0,0-29.165,0,31.19,31.19,0,0,0-10.683,8.442,37.493,37.493,0,0,0-6.57,12.35,48.779,48.779,0,0,0-2.237,14.94A49.42,49.42,0,0,0,729.849,1045.91Zm5.126-27.79a34.667,34.667,0,0,1,5.486-10.9,26.75,26.75,0,0,1,8.952-7.577,28.157,28.157,0,0,1,24.544,0,26.8,26.8,0,0,1,8.951,7.577,34.751,34.751,0,0,1,5.486,10.9,44.412,44.412,0,0,1,0,25.55,34.537,34.537,0,0,1-5.486,10.9,26.61,26.61,0,0,1-8.951,7.58,28.112,28.112,0,0,1-24.544,0,26.565,26.565,0,0,1-8.952-7.58,34.454,34.454,0,0,1-5.486-10.9A44.412,44.412,0,0,1,734.975,1018.12ZM823.043,1068h5.487v-40.13a41.161,41.161,0,0,1,1.8-12.49,28.293,28.293,0,0,1,5.27-9.82,24.445,24.445,0,0,1,8.374-6.422,26.163,26.163,0,0,1,11.261-2.31q7.506,0,11.767,2.743a18.371,18.371,0,0,1,6.353,6.569,21.074,21.074,0,0,1,2.526,8.01q0.433,4.185.434,6.93V1068h5.486v-45.91c0-1.54-.05-3.34-0.145-5.41a38.965,38.965,0,0,0-.866-6.43,27.087,27.087,0,0,0-2.382-6.56,20.233,20.233,0,0,0-4.548-5.852,21.656,21.656,0,0,0-7.435-4.186,33.724,33.724,0,0,0-11.045-1.588,31.931,31.931,0,0,0-8.519,1.155,27.329,27.329,0,0,0-13.932,9.021,23.845,23.845,0,0,0-4.115,7.44H828.53V993.8h-5.487V1068ZM974.5,1031.62c0-.38.022-0.89,0.072-1.52s0.072-1.17.072-1.66a46.136,46.136,0,0,0-2.093-14.07,35.024,35.024,0,0,0-6.136-11.55,28.913,28.913,0,0,0-10.035-7.869,31.406,31.406,0,0,0-13.788-2.887,31.807,31.807,0,0,0-14.8,3.248,31.081,31.081,0,0,0-10.468,8.658,37.561,37.561,0,0,0-6.28,12.56,52.936,52.936,0,0,0-2.094,14.95,54.091,54.091,0,0,0,2.022,15.08,34.331,34.331,0,0,0,6.136,12.13,29.13,29.13,0,0,0,10.251,8.08,32.765,32.765,0,0,0,14.365,2.96q13.428,0,21.585-6.93t10.611-19.92h-5.486q-2.463,10.395-8.976,16.24t-17.662,5.85a26.151,26.151,0,0,1-11.942-2.6,24.386,24.386,0,0,1-8.541-7.07,31.769,31.769,0,0,1-5.139-10.4,43.732,43.732,0,0,1-1.737-12.41v-0.87H974.5Zm-59.917-4.76a44.885,44.885,0,0,1,2.317-11.26,29.527,29.527,0,0,1,5.355-9.6,26.421,26.421,0,0,1,8.541-6.646,25.967,25.967,0,0,1,11.726-2.526,24.216,24.216,0,0,1,11.075,2.454,25.647,25.647,0,0,1,8.252,6.568,28.42,28.42,0,0,1,5.139,9.53,44.381,44.381,0,0,1,2.026,11.48H914.578Z" transform="translate(-454.75 -962.469)"/>
</svg>
