<svg xmlns="http://www.w3.org/2000/svg" width="185" height="38" viewBox="0 0 185 38">
  <defs>
    <style>
      .cls-1 {
        fill-rule: evenodd;
      }
    </style>
  </defs>
  <path id="logo_saitone.svg" class="cls-1" d="M759.432,757.226a12.2,12.2,0,0,0-1.284-5.131,9.949,9.949,0,0,0-3.006-3.479,12.866,12.866,0,0,0-4.367-1.981,21.706,21.706,0,0,0-5.369-.635,18.593,18.593,0,0,0-4.367.533,12.846,12.846,0,0,0-3.981,1.677,8.985,8.985,0,0,0-2.878,3,8.531,8.531,0,0,0-1.1,4.444,7.61,7.61,0,0,0,1.079,4.241,8.546,8.546,0,0,0,2.826,2.693,15.847,15.847,0,0,0,4.007,1.651q2.26,0.609,4.573,1.066,2.362,0.457,4.6.991a18.481,18.481,0,0,1,4.007,1.422,7.91,7.91,0,0,1,2.852,2.337,6.084,6.084,0,0,1,1.079,3.733,6.977,6.977,0,0,1-1.054,3.962,8.459,8.459,0,0,1-2.62,2.54,10.887,10.887,0,0,1-3.442,1.371,16.6,16.6,0,0,1-3.519.407,22.481,22.481,0,0,1-5.19-.584,11.888,11.888,0,0,1-4.29-1.9,9.15,9.15,0,0,1-2.851-3.378,10.036,10.036,0,0,1-.873-5.054H732a12.852,12.852,0,0,0,1.156,5.943,10.807,10.807,0,0,0,3.314,3.987,13.631,13.631,0,0,0,4.932,2.235,25.659,25.659,0,0,0,6.063.686,19.355,19.355,0,0,0,4.392-.533,12.994,12.994,0,0,0,4.162-1.753,10.354,10.354,0,0,0,3.108-3.149,8.7,8.7,0,0,0,1.233-4.775,8.245,8.245,0,0,0-1.079-4.394,8.586,8.586,0,0,0-2.851-2.844,15.857,15.857,0,0,0-4.008-1.727q-2.234-.635-4.6-1.092-2.312-.457-4.572-0.965a18.754,18.754,0,0,1-4.008-1.347,7.832,7.832,0,0,1-2.826-2.209,5.585,5.585,0,0,1-1.079-3.556,6.7,6.7,0,0,1,.977-3.733,7.422,7.422,0,0,1,2.491-2.388,10.564,10.564,0,0,1,3.289-1.244,16.9,16.9,0,0,1,3.313-.356,17.621,17.621,0,0,1,4.65.584,10.7,10.7,0,0,1,3.674,1.753,8.545,8.545,0,0,1,2.44,2.895,9.643,9.643,0,0,1,1,4.064h2.26Zm27.436,22.1a8.114,8.114,0,0,0,.128,1.5,2.975,2.975,0,0,0,.488,1.194,2.465,2.465,0,0,0,1.053.813,4.754,4.754,0,0,0,1.876.3,6.2,6.2,0,0,0,1.592-.2V781.3a9.533,9.533,0,0,1-1.438.152,1.645,1.645,0,0,1-1.028-.279,1.525,1.525,0,0,1-.514-0.737,3.689,3.689,0,0,1-.179-1.016c-0.018-.372-0.026-0.744-0.026-1.117V763.118a6.059,6.059,0,0,0-2.184-4.851q-2.184-1.854-6.961-1.854t-7.373,2.159a8.5,8.5,0,0,0-2.8,6.476h1.952a6.808,6.808,0,0,1,2.389-5.232,8.975,8.975,0,0,1,5.729-1.727,12.2,12.2,0,0,1,3.391.407,6.38,6.38,0,0,1,2.26,1.117,4.468,4.468,0,0,1,1.285,1.626,4.774,4.774,0,0,1,.411,1.981,14.071,14.071,0,0,1-.154,2.285,2.6,2.6,0,0,1-.771,1.5,4.254,4.254,0,0,1-1.824.914,18.049,18.049,0,0,1-3.314.483l-3.031.254a30.832,30.832,0,0,0-3.314.508,10.109,10.109,0,0,0-3.134,1.193,6.971,6.971,0,0,0-2.337,2.286,6.826,6.826,0,0,0-.925,3.734q0,3.759,2.312,5.562a10.4,10.4,0,0,0,6.525,1.8,12.662,12.662,0,0,0,3.493-.457,10.64,10.64,0,0,0,2.852-1.27,9.435,9.435,0,0,0,2.132-1.854,8.042,8.042,0,0,0,1.336-2.21h0.1v1.372Zm0-6.147a12.711,12.711,0,0,1-.283,1.956,8.39,8.39,0,0,1-1.31,3,9.327,9.327,0,0,1-2.98,2.743A10.1,10.1,0,0,1,777,782.065a8.258,8.258,0,0,1-5.086-1.4,5.032,5.032,0,0,1-1.85-4.292,5.5,5.5,0,0,1,.719-2.972,5.283,5.283,0,0,1,1.876-1.8,8.447,8.447,0,0,1,2.594-.94q1.439-.279,2.877-0.432l3.289-.3a27.39,27.39,0,0,0,3.262-.458,3.72,3.72,0,0,0,2.184-1.168v4.876Zm15.721-10.1v20.055h-1.952V763.076h-2V752.168h5.693v10.908h-1.738Zm-1.952-16.212h1.952V752.1h-1.952v-5.231ZM817.9,758.7v5.784h2.086v11.963H817.9v0.488a6.969,6.969,0,0,0,.36,2.489,2.841,2.841,0,0,0,1.105,1.4,3.936,3.936,0,0,0,1.8.584,18.385,18.385,0,0,0,2.44.051v1.676a18.454,18.454,0,0,1-2.9-.025,5.862,5.862,0,0,1-2.491-.762,4.469,4.469,0,0,1-1.721-1.905,7.114,7.114,0,0,1-.54-3.5v-0.488h-2.011V764.483h2.011V758.7h-4.881v-1.676h4.881V748.9H817.9v8.128h5.755V758.7H817.9Zm12,16.661a12.84,12.84,0,0,0,2.338,4.343,11.216,11.216,0,0,0,3.8,2.946,12.875,12.875,0,0,0,10.378,0,11.216,11.216,0,0,0,3.8-2.946,12.84,12.84,0,0,0,2.338-4.343,17.228,17.228,0,0,0,.8-5.283,16.992,16.992,0,0,0-.8-5.257,13.169,13.169,0,0,0-2.338-4.343,11.089,11.089,0,0,0-3.8-2.972,12.875,12.875,0,0,0-10.378,0,11.089,11.089,0,0,0-3.8,2.972,13.169,13.169,0,0,0-2.338,4.343,16.992,16.992,0,0,0-.8,5.257A17.228,17.228,0,0,0,829.9,775.36Zm1.824-9.778a12.121,12.121,0,0,1,1.953-3.835,9.449,9.449,0,0,1,3.185-2.667,10.117,10.117,0,0,1,8.734,0,9.482,9.482,0,0,1,3.186,2.667,12.182,12.182,0,0,1,1.952,3.835,15.458,15.458,0,0,1,0,8.99,12.171,12.171,0,0,1-1.952,3.835,9.482,9.482,0,0,1-3.186,2.667,10.117,10.117,0,0,1-8.734,0,9.449,9.449,0,0,1-3.185-2.667,12.111,12.111,0,0,1-1.953-3.835A15.458,15.458,0,0,1,831.719,765.582Zm31.34,17.549h1.952V769.01a14.363,14.363,0,0,1,.642-4.394,9.933,9.933,0,0,1,1.876-3.454,8.668,8.668,0,0,1,2.98-2.26,9.4,9.4,0,0,1,4.007-.813,7.771,7.771,0,0,1,4.187.965,6.5,6.5,0,0,1,2.261,2.312,7.366,7.366,0,0,1,.9,2.819,24.172,24.172,0,0,1,.154,2.438v16.508h1.953V766.978q0-.811-0.052-1.9a13.5,13.5,0,0,0-.308-2.261,9.521,9.521,0,0,0-.848-2.311,7.12,7.12,0,0,0-1.618-2.057,7.727,7.727,0,0,0-2.646-1.473,12.134,12.134,0,0,0-3.931-.559,11.506,11.506,0,0,0-3.031.406,9.747,9.747,0,0,0-4.958,3.175,8.336,8.336,0,0,0-1.464,2.616h-0.1v-5.587h-1.952v26.108Zm53.895-12.8c0-.135.008-0.313,0.025-0.533s0.026-.415.026-0.585a16.072,16.072,0,0,0-.745-4.952,12.291,12.291,0,0,0-2.183-4.064,10.285,10.285,0,0,0-3.571-2.768,11.286,11.286,0,0,0-4.907-1.016,11.424,11.424,0,0,0-5.266,1.143,11.04,11.04,0,0,0-3.725,3.048,13.136,13.136,0,0,0-2.235,4.419,18.4,18.4,0,0,0-.745,5.257,18.839,18.839,0,0,0,.72,5.308,12.016,12.016,0,0,0,2.183,4.267,10.371,10.371,0,0,0,3.648,2.845,11.775,11.775,0,0,0,5.112,1.041,10.673,10.673,0,0,0,11.457-9.448H914.8a10.747,10.747,0,0,1-3.194,5.715,9.132,9.132,0,0,1-6.285,2.057,9.375,9.375,0,0,1-4.25-.915,8.636,8.636,0,0,1-3.039-2.489A11.1,11.1,0,0,1,896.2,775a15.235,15.235,0,0,1-.618-4.368v-0.3h21.373Zm-21.322-1.676a15.645,15.645,0,0,1,.825-3.962,10.373,10.373,0,0,1,1.9-3.378,9.168,9.168,0,0,1,7.212-3.226,8.687,8.687,0,0,1,3.941.864,9.088,9.088,0,0,1,2.937,2.311,9.96,9.96,0,0,1,1.828,3.352,15.456,15.456,0,0,1,.721,4.039H895.632Z" transform="translate(-732 -746)"/>
</svg>
