<svg xmlns="http://www.w3.org/2000/svg" width="100" height="16" viewBox="0 0 100 16">
  <defs>
    <style>
      .cls-1 {
        fill: #001c3d;
        fill-rule: evenodd;
      }
    </style>
  </defs>
  <path id="logo_esctxt.svg" class="cls-1" d="M21.06,24.993H12V9H23.171L21.06,11.171H14.293v4.57H22.1l-2.157,2.171H14.293V22.82h8.878Zm3.815-9.162V11.171L27.076,9h11.24l-2.248,2.172h-8.9v4.524h7.493l2.2,2.285v4.706l-2.2,2.308H23.626l2.112-2.173H34.57V17.866h-7.63ZM39.52,22.82V11.171L41.768,9h10.1l-2.116,2.172H41.814V22.82H51.873l-2.111,2.173H41.768Zm22.116,2.173V11.171H56.073L58.28,9H69.493l-2.2,2.172H63.93V24.993H61.637Zm8.56,0V9H80.325l2.066,2.044v4.544l-1.725,1.2,1.725,1.352v6.85H80.1V18.025H72.491v6.968H70.2Zm2.294-13.822v4.683H80.1V11.171H72.491ZM84.979,24.993V11.171L87.182,9H94.9l2.2,2.172V24.993H94.811V19.066H87.273v5.927H84.979Zm2.293-13.822v5.723h7.539V11.171H87.273Zm16.741,5.6L98.948,9h2.681l3.709,5.812L109.136,9h2.74l-5.163,7.761L112,24.993,109.309,25l-3.964-6.339-4.087,6.329-2.723,0Z" transform="translate(-12 -9)"/>
</svg>
