<svg xmlns="http://www.w3.org/2000/svg" width="58" height="78" viewBox="0 0 58 78">
  <defs>
    <style>
      .cls-1 {
        fill: #fff;
        fill-rule: evenodd;
      }
    </style>
  </defs>
  <path id="logo_esc.svg" class="cls-1" d="M318.8,80h13.533l-6.443-6.4H312.356ZM284,128.008h12.888l19.335-19.2-6.445-6.4ZM342,89.6l-6.444-6.4H316.223L303.334,70.4h19.332L316.223,64H284l12.888,12.8L284,89.6l12.888,12.8,6.446-6.4-6.446-6.4,6.445-6.4,19.333,19.2-6.443,6.4h12.889l6.444-6.4-12.89-12.8H342ZM289.254,142H284v-9.248h6.479L289.254,134H285.33v2.641h4.53l-1.251,1.255H285.33v2.839h5.149Zm2.213-5.3V134l1.277-1.257h6.519L297.96,134H292.8v2.615h4.346l1.278,1.321v2.721L297.143,142h-6.4l1.224-1.256h5.124v-2.864h-4.425Zm8.494,4.041V134l1.3-1.257h5.861L305.9,134h-4.607v6.735h5.834L305.9,142h-4.636ZM312.789,142V134h-3.227l1.28-1.257h6.5L316.068,134h-1.949V142h-1.33Zm4.965,0v-9.248h5.874l1.2,1.182v2.628l-1,.7,1,0.782V142H323.5v-4.029h-4.412V142h-1.331ZM319.085,134v2.707H323.5V134h-4.412ZM326.328,142V134l1.277-1.257h4.478L333.36,134V142h-1.33v-3.428h-4.372V142h-1.33Zm1.33-7.991v3.308h4.372V134h-4.372Zm9.71,3.237-2.939-4.493h1.556l2.151,3.361,2.2-3.361h1.59l-3,4.488L342,142l-1.561,0-2.3-3.666-2.371,3.66H334.19Z" transform="translate(-284 -64)"/>
</svg>
